ply
format ascii 1.0
comment Exported by Open CASCADE Technology [dev.opencascade.org]
comment Authors:comment pythonocc
element vertex 248
property float x
property float y
property float z
property float nx
property float ny
property float nz
property float s
property float t
property uchar red
property uchar green
property uchar blue
element face 172
property list uchar uint vertex_indices
property uint SurfaceID
end_header
0.127275 -0.0386993 -2.36965e-18 0 -1 -0 0 0 255 255 255
0.127275 -0.0386993 0.0967482 0 -1 -0 0 -0.0967482 255 255 255
0.272398 -0.0386993 0.0967482 0 -1 -0 0.145122 -0.0967482 255 255 255
0.272398 -0.0386993 -2.36965e-18 0 -1 -0 0.145122 0 255 255 255
0.0241871 -0.130811 -8.00989e-18 0.181819 -0.983332 -6.02117e-17 0 0 255 255 255
0.0241871 -0.130811 0.0967482 0.181819 -0.983332 -6.02117e-17 0 -0.0967482 255 255 255
0.0692029 -0.113612 0.0967482 0.52021 -0.854038 -5.22948e-17 0.364261 -0.0967482 255 255 255
0.105137 -0.0815031 0.0967482 0.790336 -0.612673 -3.75154e-17 0.728522 -0.0967482 255 255 255
0.127275 -0.0386993 0.0967482 0.956751 -0.290909 -1.78131e-17 1.09278 -0.0967482 255 255 255
0.127275 -0.0386993 -2.36965e-18 0.956751 -0.290909 -1.78131e-17 1.09278 0 255 255 255
0.0692029 -0.113612 -6.95671e-18 0.52021 -0.854038 -5.22948e-17 0.364261 0 255 255 255
0.105137 -0.0815031 -4.99063e-18 0.790336 -0.612673 -3.75154e-17 0.728522 0 255 255 255
0.272398 -0.0386993 -2.36965e-18 1 -0 -0 0 0 255 255 255
0.272398 -0.0386993 0.0967482 1 -0 -0 5.92412e-18 -0.0967482 255 255 255
0.272398 -0.00967482 0.0967482 1 -0 -0 0.0290245 -0.0967482 255 255 255
0.272398 -0.00967482 -5.92412e-19 1 -0 -0 0.0290245 0 255 255 255
0.127275 -0.0386993 -2.36965e-18 -0 -0 -1 0 -1.38778e-17 255 255 255
0.272398 -0.0386993 -2.36965e-18 -0 -0 -1 0.145122 0 255 255 255
0.272398 -0.00967482 -5.92412e-19 -0 -0 -1 0.145122 0.0290245 255 255 255
0.132677 -0.00967482 -5.92412e-19 -0 -0 -1 0.00540114 0.0290245 255 255 255
0.129792 -0.0291669 -1.78596e-18 -0 -0 -1 0.00251655 0.00953237 255 255 255
0.131596 -0.0194743 -1.19246e-18 -0 -0 -1 0.00432023 0.0192249 255 255 255
0.127275 -0.0386993 0.0967482 0 0 1 0 -1.38778e-17 255 255 255
0.272398 -0.0386993 0.0967482 0 0 1 0.145122 0 255 255 255
0.272398 -0.00967482 0.0967482 0 0 1 0.145122 0.0290245 255 255 255
0.132677 -0.00967482 0.0967482 0 0 1 0.00540114 0.0290245 255 255 255
0.129792 -0.0291669 0.0967482 0 0 1 0.00251655 0.00953237 255 255 255
0.131596 -0.0194743 0.0967482 0 0 1 0.00432023 0.0192249 255 255 255
0.0241871 -0.711301 -4.35546e-17 1 -1.17145e-15 -0 0 0 255 255 255
0.0241871 -0.711301 0.0967482 1 -1.17145e-15 -0 5.92412e-18 -0.0967482 255 255 255
0.0241871 -0.130811 0.0967482 1 -1.17145e-15 -0 0.580489 -0.0967482 255 255 255
0.0241871 -0.130811 -8.00989e-18 1 -1.17145e-15 -0 0.580489 0 255 255 255
-0.132677 -0.00967482 -5.92412e-19 -0 -0 -1 0 0 255 255 255
-0.131596 -0.0194743 -1.19246e-18 -0 -0 -1 0.0010809 -0.00979953 255 255 255
-0.129792 -0.0291669 -1.78596e-18 -0 -0 -1 0.00288459 -0.0194921 255 255 255
-0.127275 -0.0386993 -2.36965e-18 -0 -0 -1 0.00540114 -0.0290245 255 255 255
-0.105137 -0.0815031 -4.99063e-18 -0 -0 -1 0.027539 -0.0718283 255 255 255
-0.0692029 -0.113612 -6.95671e-18 -0 -0 -1 0.0634737 -0.103937 255 255 255
-0.0241871 -0.130811 -8.00989e-18 -0 -0 -1 0.108489 -0.121137 255 255 255
-0.00810243 -0.132782 -8.13054e-18 -0 -0 -1 0.124574 -0.123107 255 255 255
0.00810243 -0.132782 -8.13054e-18 -0 -0 -1 0.140779 -0.123107 255 255 255
0.0241871 -0.130811 -8.00989e-18 -0 -0 -1 0.156864 -0.121137 255 255 255
0.0692029 -0.113612 -6.95671e-18 -0 -0 -1 0.201879 -0.103937 255 255 255
0.105137 -0.0815031 -4.99063e-18 -0 -0 -1 0.237814 -0.0718283 255 255 255
0.127275 -0.0386993 -2.36965e-18 -0 -0 -1 0.259952 -0.0290245 255 255 255
0.129792 -0.0291669 -1.78596e-18 -0 -0 -1 0.262468 -0.0194921 255 255 255
0.131596 -0.0194743 -1.19246e-18 -0 -0 -1 0.264272 -0.00979953 255 255 255
0.132677 -0.00967482 -5.92412e-19 -0 -0 -1 0.265353 0 255 255 255
0.0841 -0.00967482 -5.92412e-19 -0 -0 -1 0.216777 0 255 255 255
0.0394982 -0.0748753 -4.58479e-18 -0 -0 -1 0.172175 -0.0652005 255 255 255
-0.0394982 -0.0748753 -4.58479e-18 -0 -0 -1 0.0931783 -0.0652005 255 255 255
-0.0841 -0.00967482 -5.92412e-19 -0 -0 -1 0.0485765 0 255 255 255
-0.132677 -0.00967482 0.0967482 0 0 1 0 0 255 255 255
-0.131596 -0.0194743 0.0967482 0 0 1 0.0010809 -0.00979953 255 255 255
-0.129792 -0.0291669 0.0967482 0 0 1 0.00288459 -0.0194921 255 255 255
-0.127275 -0.0386993 0.0967482 0 0 1 0.00540114 -0.0290245 255 255 255
-0.105137 -0.0815031 0.0967482 0 0 1 0.027539 -0.0718283 255 255 255
-0.0692029 -0.113612 0.0967482 0 0 1 0.0634737 -0.103937 255 255 255
-0.0241871 -0.130811 0.0967482 0 0 1 0.108489 -0.121137 255 255 255
-0.00810243 -0.132782 0.0967482 0 0 1 0.124574 -0.123107 255 255 255
0.00810243 -0.132782 0.0967482 0 0 1 0.140779 -0.123107 255 255 255
0.0241871 -0.130811 0.0967482 0 0 1 0.156864 -0.121137 255 255 255
0.0692029 -0.113612 0.0967482 0 0 1 0.201879 -0.103937 255 255 255
0.105137 -0.0815031 0.0967482 0 0 1 0.237814 -0.0718283 255 255 255
0.127275 -0.0386993 0.0967482 0 0 1 0.259952 -0.0290245 255 255 255
0.129792 -0.0291669 0.0967482 0 0 1 0.262468 -0.0194921 255 255 255
0.131596 -0.0194743 0.0967482 0 0 1 0.264272 -0.00979953 255 255 255
0.132677 -0.00967482 0.0967482 0 0 1 0.265353 0 255 255 255
0.0841 -0.00967482 0.0967482 0 0 1 0.216777 0 255 255 255
0.0394982 -0.0748753 0.0967482 0 0 1 0.172175 -0.0652005 255 255 255
-0.0394982 -0.0748753 0.0967482 0 0 1 0.0931783 -0.0652005 255 255 255
-0.0841 -0.00967482 0.0967482 0 0 1 0.0485765 0 255 255 255
0.272398 -0.00967482 -5.92412e-19 -0 1 -0 0 0 255 255 255
0.272398 -0.00967482 0.0967482 -0 1 -0 0 -0.0967482 255 255 255
0.132677 -0.00967482 0.0967482 -0 1 -0 0.139721 -0.0967482 255 255 255
0.132677 -0.00967482 -5.92412e-19 -0 1 -0 0.139721 0 255 255 255
-0.0241871 -0.711301 -4.35546e-17 0 -1 -0 0 0 255 255 255
-0.0241871 -0.711301 0.0967482 0 -1 -0 0 -0.0967482 255 255 255
0.0241871 -0.711301 0.0967482 0 -1 -0 0.0483741 -0.0967482 255 255 255
0.0241871 -0.711301 -4.35546e-17 0 -1 -0 0.0483741 0 255 255 255
-0.0241871 -0.711301 -4.35546e-17 -0 -0 -1 0 0 255 255 255
0.0241871 -0.711301 -4.35546e-17 -0 -0 -1 0.0483741 0 255 255 255
0.0241871 -0.130811 -8.00989e-18 -0 -0 -1 0.0483741 0.580489 255 255 255
-0.0241871 -0.130811 -8.00989e-18 -0 -0 -1 6.80012e-16 0.580489 255 255 255
-0.00810243 -0.132782 -8.13054e-18 -0 -0 -1 0.0160846 0.578519 255 255 255
0.00810243 -0.132782 -8.13054e-18 -0 -0 -1 0.0322895 0.578519 255 255 255
-0.0241871 -0.711301 0.0967482 0 0 1 0 0 255 255 255
0.0241871 -0.711301 0.0967482 0 0 1 0.0483741 0 255 255 255
0.0241871 -0.130811 0.0967482 0 0 1 0.0483741 0.580489 255 255 255
-0.0241871 -0.130811 0.0967482 0 0 1 6.80012e-16 0.580489 255 255 255
-0.00810243 -0.132782 0.0967482 0 0 1 0.0160846 0.578519 255 255 255
0.00810243 -0.132782 0.0967482 0 0 1 0.0322895 0.578519 255 255 255
-0.272398 -0.0386993 -2.36965e-18 -0 -0 -1 0 0 255 255 255
-0.127275 -0.0386993 -2.36965e-18 -0 -0 -1 0.145122 -2.08167e-17 255 255 255
-0.132677 -0.00967482 -5.92412e-19 -0 -0 -1 0.139721 0.0290245 255 255 255
-0.131596 -0.0194743 -1.19246e-18 -0 -0 -1 0.140802 0.0192249 255 255 255
-0.129792 -0.0291669 -1.78596e-18 -0 -0 -1 0.142606 0.00953237 255 255 255
-0.272398 -0.00967482 -5.92412e-19 -0 -0 -1 5.55112e-17 0.0290245 255 255 255
-0.127275 -0.0386993 -2.36965e-18 -0.956751 -0.290909 -1.78131e-17 0 0 255 255 255
-0.127275 -0.0386993 0.0967482 -0.956751 -0.290909 -1.78131e-17 0 -0.0967482 255 255 255
-0.105137 -0.0815031 0.0967482 -0.790336 -0.612673 -3.75154e-17 0.364261 -0.0967482 255 255 255
-0.0692029 -0.113612 0.0967482 -0.52021 -0.854038 -5.22948e-17 0.728522 -0.0967482 255 255 255
-0.0241871 -0.130811 0.0967482 -0.181819 -0.983332 -6.02117e-17 1.09278 -0.0967482 255 255 255
-0.0241871 -0.130811 -8.00989e-18 -0.181819 -0.983332 -6.02117e-17 1.09278 0 255 255 255
-0.105137 -0.0815031 -4.99063e-18 -0.790336 -0.612673 -3.75154e-17 0.364261 0 255 255 255
-0.0692029 -0.113612 -6.95671e-18 -0.52021 -0.854038 -5.22948e-17 0.728522 0 255 255 255
0.132677 -0.00967482 -5.92412e-19 -0 1 -0 0 0 255 255 255
0.132677 -0.00967482 0.0967482 -0 1 -0 0 -0.0967482 255 255 255
0.0841 -0.00967482 0.0967482 -0 1 -0 0.0485765 -0.0967482 255 255 255
0.0841 -0.00967482 -5.92412e-19 -0 1 -0 0.0485765 0 255 255 255
0.0841 -0.00967482 -5.92412e-19 -0.993448 0.114286 6.99798e-18 0 0 255 255 255
0.0841 -0.00967482 0.0967482 -0.993448 0.114286 6.99798e-18 0 -0.0967482 255 255 255
0.0394982 -0.0748753 0.0967482 -0.46658 0.884479 5.41587e-17 0.97084 -0.0967482 255 255 255
-0.0394982 -0.0748753 0.0967482 0.46658 0.884479 5.41587e-17 1.94168 -0.0967482 255 255 255
-0.0841 -0.00967482 0.0967482 0.993448 0.114286 6.99798e-18 2.91252 -0.0967482 255 255 255
-0.0841 -0.00967482 -5.92412e-19 0.993448 0.114286 6.99798e-18 2.91252 0 255 255 255
0.0394982 -0.0748753 -4.58479e-18 -0.46658 0.884479 5.41587e-17 0.97084 0 255 255 255
-0.0394982 -0.0748753 -4.58479e-18 0.46658 0.884479 5.41587e-17 1.94168 0 255 255 255
-0.0841 -0.00967482 -5.92412e-19 -0 1 -0 0 0 255 255 255
-0.0841 -0.00967482 0.0967482 -0 1 -0 0 -0.0967482 255 255 255
-0.132677 -0.00967482 0.0967482 -0 1 -0 0.0485765 -0.0967482 255 255 255
-0.132677 -0.00967482 -5.92412e-19 -0 1 -0 0.0485765 0 255 255 255
-0.272398 -0.0386993 0.0967482 0 0 1 0 0 255 255 255
-0.127275 -0.0386993 0.0967482 0 0 1 0.145122 -2.08167e-17 255 255 255
-0.132677 -0.00967482 0.0967482 0 0 1 0.139721 0.0290245 255 255 255
-0.131596 -0.0194743 0.0967482 0 0 1 0.140802 0.0192249 255 255 255
-0.129792 -0.0291669 0.0967482 0 0 1 0.142606 0.00953237 255 255 255
-0.272398 -0.00967482 0.0967482 0 0 1 5.55112e-17 0.0290245 255 255 255
-0.0241871 -0.130811 -8.00989e-18 -1 1.17145e-15 -0 0 0 255 255 255
-0.0241871 -0.130811 0.0967482 -1 1.17145e-15 -0 -5.92412e-18 -0.0967482 255 255 255
-0.0241871 -0.711301 0.0967482 -1 1.17145e-15 -0 0.580489 -0.0967482 255 255 255
-0.0241871 -0.711301 -4.35546e-17 -1 1.17145e-15 -0 0.580489 0 255 255 255
-0.272398 -0.0386993 -2.36965e-18 0 -1 -0 0 0 255 255 255
-0.272398 -0.0386993 0.0967482 0 -1 -0 0 -0.0967482 255 255 255
-0.127275 -0.0386993 0.0967482 0 -1 -0 0.145122 -0.0967482 255 255 255
-0.127275 -0.0386993 -2.36965e-18 0 -1 -0 0.145122 0 255 255 255
-0.132677 -0.00967482 -5.92412e-19 -0 1 -0 0 0 255 255 255
-0.132677 -0.00967482 0.0967482 -0 1 -0 0 -0.0967482 255 255 255
-0.272398 -0.00967482 0.0967482 -0 1 -0 0.139721 -0.0967482 255 255 255
-0.272398 -0.00967482 -5.92412e-19 -0 1 -0 0.139721 0 255 255 255
-0.272398 -0.00967482 -5.92412e-19 -1 1.91256e-15 -0 0 0 255 255 255
-0.272398 -0.00967482 0.0967482 -1 1.91256e-15 -0 -5.92412e-18 -0.0967482 255 255 255
-0.272398 -0.0386993 0.0967482 -1 1.91256e-15 -0 0.0290245 -0.0967482 255 255 255
-0.272398 -0.0386993 -2.36965e-18 -1 1.91256e-15 -0 0.0290245 0 255 255 255
0.132677 0.00967482 5.92412e-19 0 -1 -0 0 0 255 255 255
0.132677 0.00967482 0.0967482 0 -1 -0 0 -0.0967482 255 255 255
0.272398 0.00967482 0.0967482 0 -1 -0 0.139721 -0.0967482 255 255 255
0.272398 0.00967482 5.92412e-19 0 -1 -0 0.139721 0 255 255 255
0.0841 0.00967482 5.92412e-19 0 -1 -0 0 0 255 255 255
0.0841 0.00967482 0.0967482 0 -1 -0 0 -0.0967482 255 255 255
0.132677 0.00967482 0.0967482 0 -1 -0 0.0485765 -0.0967482 255 255 255
0.132677 0.00967482 5.92412e-19 0 -1 -0 0.0485765 0 255 255 255
0.272398 0.00967482 5.92412e-19 1 -0 -0 0 0 255 255 255
0.272398 0.00967482 0.0967482 1 -0 -0 5.92412e-18 -0.0967482 255 255 255
0.272398 0.0386993 0.0967482 1 -0 -0 0.0290245 -0.0967482 255 255 255
0.272398 0.0386993 2.36965e-18 1 -0 -0 0.0290245 0 255 255 255
0.132677 0.00967482 5.92412e-19 -0 -0 -1 0.00540114 -0.0290245 255 255 255
0.131596 0.0194743 1.19246e-18 -0 -0 -1 0.00432023 -0.0192249 255 255 255
0.129792 0.0291669 1.78596e-18 -0 -0 -1 0.00251655 -0.00953237 255 255 255
0.127275 0.0386993 2.36965e-18 -0 -0 -1 0 0 255 255 255
0.272398 0.00967482 5.92412e-19 -0 -0 -1 0.145122 -0.0290245 255 255 255
0.272398 0.0386993 2.36965e-18 -0 -0 -1 0.145122 0 255 255 255
0.132677 0.00967482 0.0967482 0 0 1 0.00540114 -0.0290245 255 255 255
0.131596 0.0194743 0.0967482 0 0 1 0.00432023 -0.0192249 255 255 255
0.129792 0.0291669 0.0967482 0 0 1 0.00251655 -0.00953237 255 255 255
0.127275 0.0386993 0.0967482 0 0 1 0 0 255 255 255
0.272398 0.00967482 0.0967482 0 0 1 0.145122 -0.0290245 255 255 255
0.272398 0.0386993 0.0967482 0 0 1 0.145122 0 255 255 255
-0.0841 0.00967482 5.92412e-19 0.993448 -0.114286 -6.99798e-18 0 0 255 255 255
-0.0841 0.00967482 0.0967482 0.993448 -0.114286 -6.99798e-18 0 -0.0967482 255 255 255
-0.0394982 0.0748753 0.0967482 0.46658 -0.884479 -5.41587e-17 0.97084 -0.0967482 255 255 255
0.0394982 0.0748753 0.0967482 -0.46658 -0.884479 -5.41587e-17 1.94168 -0.0967482 255 255 255
0.0841 0.00967482 0.0967482 -0.993448 -0.114286 -6.99798e-18 2.91252 -0.0967482 255 255 255
0.0841 0.00967482 5.92412e-19 -0.993448 -0.114286 -6.99798e-18 2.91252 0 255 255 255
-0.0394982 0.0748753 4.58479e-18 0.46658 -0.884479 -5.41587e-17 0.97084 0 255 255 255
0.0394982 0.0748753 4.58479e-18 -0.46658 -0.884479 -5.41587e-17 1.94168 0 255 255 255
-0.132677 0.00967482 5.92412e-19 -0 -0 -1 0 0 255 255 255
-0.0841 0.00967482 5.92412e-19 -0 -0 -1 0.0485765 1.73472e-18 255 255 255
-0.0394982 0.0748753 4.58479e-18 -0 -0 -1 0.0931783 0.0652005 255 255 255
0.0394982 0.0748753 4.58479e-18 -0 -0 -1 0.172175 0.0652005 255 255 255
0.0841 0.00967482 5.92412e-19 -0 -0 -1 0.216777 0 255 255 255
0.132677 0.00967482 5.92412e-19 -0 -0 -1 0.265353 0 255 255 255
0.131596 0.0194743 1.19246e-18 -0 -0 -1 0.264272 0.00979953 255 255 255
0.129792 0.0291669 1.78596e-18 -0 -0 -1 0.262468 0.0194921 255 255 255
0.127275 0.0386993 2.36965e-18 -0 -0 -1 0.259952 0.0290245 255 255 255
0.0792103 0.106876 6.54424e-18 -0 -0 -1 0.211887 0.0972008 255 255 255
4.85723e-17 0.133029 8.14566e-18 -0 -0 -1 0.132677 0.123354 255 255 255
-0.0792103 0.106876 6.54424e-18 -0 -0 -1 0.0534662 0.0972008 255 255 255
-0.127275 0.0386993 2.36965e-18 -0 -0 -1 0.00540114 0.0290245 255 255 255
-0.131596 0.0194743 1.19246e-18 -0 -0 -1 0.0010809 0.00979953 255 255 255
-0.129792 0.0291669 1.78596e-18 -0 -0 -1 0.00288459 0.0194921 255 255 255
-0.132677 0.00967482 0.0967482 0 0 1 0 0 255 255 255
-0.0841 0.00967482 0.0967482 0 0 1 0.0485765 1.73472e-18 255 255 255
-0.0394982 0.0748753 0.0967482 0 0 1 0.0931783 0.0652005 255 255 255
0.0394982 0.0748753 0.0967482 0 0 1 0.172175 0.0652005 255 255 255
0.0841 0.00967482 0.0967482 0 0 1 0.216777 0 255 255 255
0.132677 0.00967482 0.0967482 0 0 1 0.265353 0 255 255 255
0.131596 0.0194743 0.0967482 0 0 1 0.264272 0.00979953 255 255 255
0.129792 0.0291669 0.0967482 0 0 1 0.262468 0.0194921 255 255 255
0.127275 0.0386993 0.0967482 0 0 1 0.259952 0.0290245 255 255 255
0.0792103 0.106876 0.0967482 0 0 1 0.211887 0.0972008 255 255 255
4.85723e-17 0.133029 0.0967482 0 0 1 0.132677 0.123354 255 255 255
-0.0792103 0.106876 0.0967482 0 0 1 0.0534662 0.0972008 255 255 255
-0.127275 0.0386993 0.0967482 0 0 1 0.00540114 0.0290245 255 255 255
-0.131596 0.0194743 0.0967482 0 0 1 0.0010809 0.00979953 255 255 255
-0.129792 0.0291669 0.0967482 0 0 1 0.00288459 0.0194921 255 255 255
0.272398 0.0386993 2.36965e-18 -0 1 -0 0 0 255 255 255
0.272398 0.0386993 0.0967482 -0 1 -0 0 -0.0967482 255 255 255
0.127275 0.0386993 0.0967482 -0 1 -0 0.145122 -0.0967482 255 255 255
0.127275 0.0386993 2.36965e-18 -0 1 -0 0.145122 0 255 255 255
-0.132677 0.00967482 5.92412e-19 0 -1 -0 0 0 255 255 255
-0.132677 0.00967482 0.0967482 0 -1 -0 0 -0.0967482 255 255 255
-0.0841 0.00967482 0.0967482 0 -1 -0 0.0485765 -0.0967482 255 255 255
-0.0841 0.00967482 5.92412e-19 0 -1 -0 0.0485765 0 255 255 255
0.127275 0.0386993 2.36965e-18 0.956751 0.290909 1.7813e-17 0 0 255 255 255
0.127275 0.0386993 0.0967482 0.956751 0.290909 1.7813e-17 0 -0.0967482 255 255 255
0.0792103 0.106876 0.0967482 0.595437 0.803402 4.91942e-17 0.63781 -0.0967482 255 255 255
4.85723e-17 0.133029 0.0967482 5.21608e-17 1 6.12323e-17 1.27562 -0.0967482 255 255 255
-0.0792103 0.106876 0.0967482 -0.595437 0.803402 4.91942e-17 1.91343 -0.0967482 255 255 255
-0.127275 0.0386993 0.0967482 -0.956751 0.290909 1.7813e-17 2.55124 -0.0967482 255 255 255
-0.127275 0.0386993 2.36965e-18 -0.956751 0.290909 1.7813e-17 2.55124 0 255 255 255
0.0792103 0.106876 6.54424e-18 0.595437 0.803402 4.91942e-17 0.63781 0 255 255 255
4.85723e-17 0.133029 8.14566e-18 5.21608e-17 1 6.12323e-17 1.27562 0 255 255 255
-0.0792103 0.106876 6.54424e-18 -0.595437 0.803402 4.91942e-17 1.91343 0 255 255 255
-0.272398 0.00967482 5.92412e-19 -0 -0 -1 0 0 255 255 255
-0.132677 0.00967482 5.92412e-19 -0 -0 -1 0.139721 0 255 255 255
-0.131596 0.0194743 1.19246e-18 -0 -0 -1 0.140802 0.00979953 255 255 255
-0.129792 0.0291669 1.78596e-18 -0 -0 -1 0.142606 0.0194921 255 255 255
-0.127275 0.0386993 2.36965e-18 -0 -0 -1 0.145122 0.0290245 255 255 255
-0.272398 0.0386993 2.36965e-18 -0 -0 -1 5.55112e-17 0.0290245 255 255 255
-0.272398 0.00967482 0.0967482 0 0 1 0 0 255 255 255
-0.132677 0.00967482 0.0967482 0 0 1 0.139721 0 255 255 255
-0.131596 0.0194743 0.0967482 0 0 1 0.140802 0.00979953 255 255 255
-0.129792 0.0291669 0.0967482 0 0 1 0.142606 0.0194921 255 255 255
-0.127275 0.0386993 0.0967482 0 0 1 0.145122 0.0290245 255 255 255
-0.272398 0.0386993 0.0967482 0 0 1 5.55112e-17 0.0290245 255 255 255
-0.272398 0.00967482 5.92412e-19 0 -1 -0 0 0 255 255 255
-0.272398 0.00967482 0.0967482 0 -1 -0 0 -0.0967482 255 255 255
-0.132677 0.00967482 0.0967482 0 -1 -0 0.139721 -0.0967482 255 255 255
-0.132677 0.00967482 5.92412e-19 0 -1 -0 0.139721 0 255 255 255
-0.127275 0.0386993 2.36965e-18 -0 1 -0 0 0 255 255 255
-0.127275 0.0386993 0.0967482 -0 1 -0 0 -0.0967482 255 255 255
-0.272398 0.0386993 0.0967482 -0 1 -0 0.145122 -0.0967482 255 255 255
-0.272398 0.0386993 2.36965e-18 -0 1 -0 0.145122 0 255 255 255
-0.272398 0.0386993 2.36965e-18 -1 1.91256e-15 -0 0 0 255 255 255
-0.272398 0.0386993 0.0967482 -1 1.91256e-15 -0 -5.92412e-18 -0.0967482 255 255 255
-0.272398 0.00967482 0.0967482 -1 1.91256e-15 -0 0.0290245 -0.0967482 255 255 255
-0.272398 0.00967482 5.92412e-19 -1 1.91256e-15 -0 0.0290245 0 255 255 255
3 3 1 0 1
3 3 2 1 1
3 10 5 4 2
3 10 6 5 2
3 11 7 6 2
3 11 6 10 2
3 9 8 7 2
3 9 7 11 2
3 15 13 12 3
3 15 14 13 3
3 17 16 20 4
3 17 20 21 4
3 18 21 19 4
3 18 17 21 4
3 23 26 22 5
3 23 27 26 5
3 24 25 27 5
3 24 27 23 5
3 31 29 28 6
3 31 30 29 6
3 50 37 36 7
3 50 38 37 7
3 50 39 38 7
3 51 33 32 7
3 51 34 33 7
3 51 35 34 7
3 51 36 35 7
3 51 50 36 7
3 49 40 39 7
3 49 41 40 7
3 49 42 41 7
3 49 39 50 7
3 43 42 49 7
3 48 43 49 7
3 44 43 48 7
3 45 44 48 7
3 46 45 48 7
3 47 46 48 7
3 70 56 57 8
3 70 57 58 8
3 70 58 59 8
3 71 52 53 8
3 71 53 54 8
3 71 54 55 8
3 71 55 56 8
3 71 56 70 8
3 69 59 60 8
3 69 60 61 8
3 69 61 62 8
3 69 70 59 8
3 63 69 62 8
3 68 69 63 8
3 64 68 63 8
3 65 68 64 8
3 66 68 65 8
3 67 68 66 8
3 75 73 72 9
3 75 74 73 9
3 79 77 76 10
3 79 78 77 10
3 84 80 83 11
3 85 81 80 11
3 85 80 84 11
3 82 81 85 11
3 90 89 86 12
3 91 86 87 12
3 91 90 86 12
3 88 91 87 12
3 96 93 92 13
3 95 92 97 13
3 95 96 92 13
3 94 95 97 13
3 104 99 98 14
3 104 100 99 14
3 105 101 100 14
3 105 100 104 14
3 103 102 101 14
3 103 101 105 14
3 109 107 106 15
3 109 108 107 15
3 116 111 110 16
3 116 112 111 16
3 117 113 112 16
3 117 112 116 16
3 115 114 113 16
3 115 113 117 16
3 121 119 118 17
3 121 120 119 17
3 126 122 123 18
3 125 127 122 18
3 125 122 126 18
3 124 127 125 18
3 131 129 128 19
3 131 130 129 19
3 135 133 132 20
3 135 134 133 20
3 139 137 136 21
3 139 138 137 21
3 143 141 140 22
3 143 142 141 22
3 147 145 144 23
3 147 146 145 23
3 151 149 148 24
3 151 150 149 24
3 155 153 152 25
3 155 154 153 25
3 160 156 157 26
3 161 157 158 26
3 161 158 159 26
3 161 160 157 26
3 166 163 162 27
3 167 164 163 27
3 167 165 164 27
3 167 163 166 27
3 174 169 168 28
3 174 170 169 28
3 175 171 170 28
3 175 170 174 28
3 173 172 171 28
3 173 171 175 28
3 177 176 189 29
3 177 189 190 29
3 177 190 188 29
3 178 188 187 29
3 178 177 188 29
3 186 179 178 29
3 186 178 187 29
3 182 181 180 29
3 183 182 180 29
3 184 180 179 29
3 184 183 180 29
3 185 179 186 29
3 185 184 179 29
3 192 204 191 30
3 192 205 204 30
3 192 203 205 30
3 193 202 203 30
3 193 203 192 30
3 201 193 194 30
3 201 202 193 30
3 197 195 196 30
3 198 195 197 30
3 199 194 195 30
3 199 195 198 30
3 200 201 194 30
3 200 194 199 30
3 209 207 206 31
3 209 208 207 31
3 213 211 210 32
3 213 212 211 32
3 221 215 214 33
3 221 216 215 33
3 222 217 216 33
3 222 216 221 33
3 223 218 217 33
3 223 217 222 33
3 220 219 218 33
3 220 218 223 33
3 226 225 224 34
3 226 224 229 34
3 227 226 229 34
3 228 227 229 34
3 232 230 231 35
3 232 235 230 35
3 233 235 232 35
3 234 235 233 35
3 239 237 236 36
3 239 238 237 36
3 243 241 240 37
3 243 242 241 37
3 247 245 244 38
3 247 246 245 38
